<svg width="19" height="26" viewBox="0 0 19 26" fill="none" xmlns="http://www.w3.org/2000/svg">
<path fill-rule="evenodd" clip-rule="evenodd" d="M9.50002 11.963C12.6092 11.963 15.1296 9.44249 15.1296 6.33333C15.1296 3.22417 12.6092 0.703704 9.50002 0.703704C6.39086 0.703704 3.87039 3.22417 3.87039 6.33333C3.87039 9.44249 6.39086 11.963 9.50002 11.963ZM9.50002 12.6667C12.9978 12.6667 15.8334 9.83114 15.8334 6.33333C15.8334 2.83553 12.9978 0 9.50002 0C6.00222 0 3.16669 2.83553 3.16669 6.33333C3.16669 9.83114 6.00222 12.6667 9.50002 12.6667Z" fill="#9D9D9D"/>
<path fill-rule="evenodd" clip-rule="evenodd" d="M3.31652 16.5827C1.70892 18.8086 0.703704 21.9013 0.703704 25.3333H0C0 21.7698 1.04267 18.5292 2.74604 16.1706C4.44908 13.8126 6.83242 12.3148 9.5 12.3148C12.1676 12.3148 14.5509 13.8126 16.254 16.1706C17.9573 18.5292 19 21.7698 19 25.3333H18.2963C18.2963 21.9013 17.2911 18.8086 15.6835 16.5827C14.0755 14.3563 11.8848 13.0185 9.5 13.0185C7.1152 13.0185 4.92446 14.3563 3.31652 16.5827Z" fill="#9D9D9D"/>
</svg>
